<svg xmlns="http://www.w3.org/2000/svg" width="563" height="444" viewBox="0 0 563 444">
    <g fill="none" fill-rule="evenodd">
        <path fill="#0C1445" d="M504.941 190L509 212.713 503.415 216l-1.391-1.114 2.917-4.171L500 195.263z"/>
        <path fill="#58BAF4" d="M504.927 210l1.566.671 2.167-.568.34 1.787-5.605 3.11-1.395-1.054z"/>
        <path fill="#0C1445" d="M510.941 195L515 217.715 509.415 221l-1.391-1.113 2.917-4.17L506 200.272z"/>
        <path stroke="#58BAF4" stroke-linecap="round" stroke-linejoin="round" stroke-width=".5" d="M164.5 57v55"/>
        <path fill="#396AEB" d="M91.495 181L56 201.5 91.505 222 127 201.5z"/>
        <path fill="#0C1445" d="M56 202v10.333L91 233v-10.333z"/>
        <path fill="#58BAF4" d="M127 202v10.333L92 233v-10.333z"/>
        <path fill="#396AEB" d="M92.005 185L71 196.995 92.005 209 113 196.995z"/>
        <path fill="#0C1445" d="M71 197v6.004L92 215v-5.993z"/>
        <path fill="#58BAF4" d="M113 197v6.004L92 215v-5.993z"/>
        <path fill="#0C1445" d="M92 202v-91.201L85 107l.172 91.288z"/>
        <path fill="#58BAF4" d="M92 202v-91.201L99 107l-.16 91.288z"/>
        <path fill="#0C1445" d="M92 120V28.799L85 25l.172 91.288z"/>
        <path fill="#58BAF4" d="M92.08 120L92 28.799 99 25l-.159 91.288z"/>
        <path fill="#58BAF4" d="M65 7.818L130.667 46 137 42.323 71.57 4z"/>
        <path fill="#0C1445" d="M65 7.793L71.602 4l92.718 53.68L168 67z"/>
        <path fill="#396AEB" d="M164.857 57L172 53.27 78.612 0 72 3.762z"/>
        <path fill="#58BAF4" d="M171.101 54L174 63.36 167.664 67 164 57.737zM201.587 349L110 402.077 175.413 440 267 386.912z"/>
        <path fill="#0C1445" d="M110 402v4.318L175 444v-4.585zM267 387v4.406L175 444v-4.588z"/>
        <path fill="#396AEB" d="M201.848 355L155 382.765 208.722 414 256 387.19z"/>
        <path fill="#FFF" d="M154.204 386L124 403.064l4.731 2.936L159 389.154zM164.204 393L134 410.073l4.72 2.927L169 396.156zM175.193 399L145 416.064l4.72 2.936L180 402.154zM184.194 405L154 422.064l4.73 2.936L189 408.154z"/>
        <path stroke="#FFF" stroke-width=".13" d="M201.754 361L173 377.94 205.977 397 235 380.643z"/>
        <path fill="#396AEB" d="M506 220.916L273.519 356 92 251.471 325.538 117z"/>
        <path fill="#0C1445" d="M92 251v5.31L274 361v-5.3z"/>
        <path fill="#58BAF4" d="M506 220v5.315L273 361v-5.315z"/>
        <path fill="#AA9FFB" d="M383 107.5l13.005-7.5L409 107.5l-12.995 7.5z"/>
        <path fill="#0C1445" d="M383 107v15.337L396 130v-15.337z"/>
        <path fill="#795EFA" d="M409 107v15.337L396 130v-15.337z"/>
        <path fill="#AA9FFB" d="M383 92.5l13.005-7.5L409 92.5l-12.995 7.5z"/>
        <path fill="#0C1445" d="M383 92v15.333L396 115V99.667z"/>
        <path fill="#795EFA" d="M409 92v15.333L396 115V99.667z"/>
        <path fill="#AA9FFB" d="M424 107.505L437.005 100 450 107.505 437.005 115z"/>
        <path fill="#0C1445" d="M424 107v15.333L437 130v-15.333z"/>
        <path fill="#795EFA" d="M450 107v15.333L437 130v-15.333z"/>
        <path fill="#0C1445" d="M103.637 258L337 123.692 325.363 117 92 251.297z"/>
        <path fill="#FFF" d="M109.391 250.612a3.728 3.728 0 0 1-3.505-.103c-1.085-.616-1.172-1.562-.27-2.12a3.728 3.728 0 0 1 3.504.102c1.053.616 1.183 1.573.271 2.12zM114.402 246.606a3.739 3.739 0 0 1-3.513-.092c-1.088-.617-1.175-1.565-.272-2.125a3.739 3.739 0 0 1 3.513.103c1.045.605 1.164 1.554.272 2.114zM120.406 243.612a3.75 3.75 0 0 1-3.517-.103c-1.088-.616-1.176-1.562-.272-2.12a3.75 3.75 0 0 1 3.516.102c1.035.616 1.165 1.562.273 2.12zM286 142.332l6.51 3.668L332 123.54l-6.79-3.54z"/>
        <path fill="#396AEB" d="M70 278.5l12.995-7.5L96 278.5 82.995 286z"/>
        <path fill="#0C1445" d="M70 279v15.333L83 302v-15.333z"/>
        <path fill="#58BAF4" d="M96 279v15.333L83 302v-15.333z"/>
        <path fill="#AA9FFB" d="M230 109.5l13-7.5 13 7.5-13 7.5z"/>
        <path fill="#0C1445" d="M230 109v15.333L243 132v-15.333z"/>
        <path fill="#795EFA" d="M256 109v15.333L243 132v-15.333z"/>
        <path fill="#0C1445" d="M416 121l-13 13.395L416 142z"/>
        <path fill="#AA9FFB" d="M416 121l13 13.395L416 142z"/>
        <path fill="#0C1445" d="M396 70l-13 13.391L396 91z"/>
        <path fill="#AA9FFB" d="M396 70l13 13.391L396 91z"/>
        <path fill="#0C1445" d="M108 296l-12 12.12 12 6.88z"/>
        <path fill="#AA9FFB" d="M108 296l12 12.12-12 6.88z"/>
        <path fill="#0C1445" d="M148 194l-12 12.11 12 6.89z"/>
        <path fill="#AA9FFB" d="M148 194l12 12.11-12 6.89z"/>
        <path fill="#396AEB" d="M340.128 134L288 164.54 353.152 202 406 171.816z"/>
        <path fill="#74FCBF" d="M209.312 210L130 254.955 182.548 285 261 239.938z"/>
        <path fill="#FFF" d="M201.915 237L145 269.368 182.7 291l56.3-32.443z"/>
        <path stroke="#FFF" stroke-width=".25" d="M363.39 222L275 272.35 333.56 306 421 255.53z"/>
        <path fill="#AA9FFB" d="M327 189l12.288 52L406 203.596z"/>
        <path fill="#FFF" d="M327 152l6.692 29L370 160.14z"/>
        <path fill="#0C1445" d="M31 345.996v-3.846L83.396 316 162 357.148v3.846L109.604 391z"/>
        <path fill="#58BAF4" d="M31 342.006L83.396 312 162 357.004 109.604 387z"/>
        <path fill="#FFF" d="M83.267 316L61 327.988 96.392 348 118 335.64zM125.606 341L82 366.123 86.949 369 130 343.27zM57.26 331L40 341.134 44.857 344 62 333.557zM67.26 337L50 347.136 54.846 350 72 339.566zM76.26 343L59 353.125 63.857 356 81 345.566zM134.606 346L91 371.123 95.949 374 139 348.28zM143.605 352L100 377.123l4.95 2.877L148 354.28z"/>
        <path fill="#0C1445" d="M530 312.006v-3.856L477.598 282 399 323.158v3.846L451.402 357z"/>
        <path fill="#58BAF4" d="M477.598 279L399 324.004 451.402 354 530 308.996z"/>
        <path fill="#74FCBF" d="M477.722 283L500 294.988 464.608 315 443 302.63z"/>
        <path fill="#FFF" d="M434.395 308L478 333.133 473.05 336 430 310.27zM503.737 298L521 308.136 516.145 311 499 300.566zM493.74 304L511 314.125 506.143 317 489 306.566zM483.74 309L501 319.134 496.154 322 479 311.557zM469 338.133L464.06 341 421 315.27l4.395-2.27zM417.394 319L461 344.133 456.051 347 413 321.27z"/>
        <path fill="#0C1445" d="M85 25.323L98.337 33 104 29.785 85 19z"/>
        <path stroke="#58BAF4" stroke-linecap="round" stroke-linejoin="round" stroke-width=".5" d="M85 32l7 14M85 48l7 14M85 63l7 14M85 77l7 14M85 93l7 14M85 108l7 14M85 123l7 14M85 138l7 14M85 153l7 14M85 168l7 14M85 184l7 14"/>
        <path fill="#0C1445" d="M130.194 127.936L197.894 90 200 91.208l-2.106 61.44L132.117 193 130 191.792z"/>
        <path fill="#58BAF4" d="M132.184 129.024L200 91v62.776L132 193z"/>
        <path fill="#0C1445" d="M164 117.006V144l31-18.006V99z"/>
        <path fill="#FFF" d="M149 145.286V170l20.851-12.362L170 133z"/>
        <path fill="#0C1445" d="M392 228.831L455.947 191 496 214.785 431.762 252z"/>
        <path fill="#74FCBF" d="M392 224.801L484.628 172 524 194.754 431.891 248z"/>
        <path fill="#58BAF4" d="M250.69 313l-.69 2.72c.272.846.83 1.554 1.567 1.986 1.152.652 2.4 1.09 3.69 1.294l.743-.79-2.515-2.194-.382-1.447-2.412-1.569z"/>
        <path fill="#60DA9A" d="M421 240.847l5.951-17.363 30.53-5.852 3.105-20.277 21.367-2.743L486.54 173 523 194.138 431.57 247z"/>
        <path fill="#0C1445" d="M500.99 163.647l-5.174 14.305-2.816 1.477h3.001l2.052 1.182 5.708-14.337-2.183 16.416 9.408 5.473 2.718-17.03v18.606l2.248 1.302-.535 1.959 1.583-1.357v-22.469c0-.808-.243-1.598-.698-2.265l-.513-.745a3.997 3.997 0 0 0-1.692-1.411l-7.75-3.415a3.986 3.986 0 0 0-5.358 2.31z"/>
        <path stroke="#0C1445" stroke-width=".25" d="M142 262l64.48-37L246 247.626"/>
        <path fill="#58BAF4" d="M496.692 177l2.308 1.794-.452 1.206-1.847-1.143H494l2.544-1.416zM514 189l3 .224v2.325L515.56 193l.486-2.112-2.046-1.404zM510.927 216l1.554.661 2.179-.558.34 1.787-5.605 3.11-1.395-1.054z"/>
        <path fill="#0C1445" d="M275.4 271.252c-.852-3.663-2.599-6.522-5.833-4.674l-2.49 1.435a33.58 33.58 0 0 0-9.703 8.554l-4.312 5.652a8.302 8.302 0 0 0-1.51 6.836l2.318 10.467-3.87 13.902 3.234 1.576 4.96-11.706v-14.445l3.665 24.945 2.296-1-.485-26.967 1.542-1.771 3.579 10.717 2.016-.99-2.415-13.043 3.86-4.347 4.312 13.717 2.436-1.24-3.6-17.618z"/>
        <path fill="#AA9FFB" d="M249 307.875L314.183 270 380 322.952 314.161 361z"/>
        <path fill="#0C1445" d="M257.76 314l-8.76 5.444L292.392 345l1.608-.951z"/>
        <path fill="#58BAF4" d="M273.736 262.393l.261 5.069c.05.984-.525 1.9-1.454 2.316a2.6 2.6 0 0 1-2.784-.437l-1.136-2.098a2.125 2.125 0 0 1-.534-2.108l.08-3.135 5.567.393z"/>
        <path fill="#0C1445" d="M267.452 266.447s-.973-3.577-.064-4.776c.908-1.199 3.308-2.367 5.006-1.168a6.803 6.803 0 0 0 2.606 1.314l-1.546 2.086a1.943 1.943 0 0 0-.855-.678c-.519-.177-3.006.115-3.125 1.23-.054.851-.003 1.706.152 2.545 0 0-.422-1.606-1.081-1.814-.66-.21-.39 1.762-.39 1.762l-.703-.5z"/>
        <path fill="#58BAF4" d="M506.264 157.393l-.261 5.069c-.05.984.525 1.9 1.454 2.316a2.6 2.6 0 0 0 2.784-.437l1.136-2.098a2.125 2.125 0 0 0 .534-2.108l-.08-3.135-5.567.393z"/>
        <path fill="#0C1445" d="M512.548 161.447s.973-3.577.064-4.776c-.908-1.199-3.308-2.367-5.006-1.168a6.803 6.803 0 0 1-2.606 1.314l1.546 2.086c.212-.3.508-.536.855-.678.519-.177 3.006.115 3.125 1.23.054.851.003 1.706-.152 2.545 0 0 .422-1.606 1.081-1.814.66-.21.455 1.751.455 1.751l.638-.49z"/>
        <path fill="#58BAF4" d="M271.04 293l.96.35-.61.432-.732.502.306 1.716-1.964-1.926zM277 290.066l.195.934 1.8-.906 2.005.689-1.04-1.18-.521-.603zM214.922 206l1.078 2.03-3.254 2.97-2.746-1.166.986-.908 1.546-.19-.173-1.267zM201 215.19V218l-4.695-.372-2.305-1.526.19-.216c.652-.754 1.606-1.056 2.505-.793l1.337.385.379-.289H201zM200.58 150.305a24.87 24.87 0 0 0-.58 5.068c.168 1.474.59 1.372 1.285 1.599 1.4.171 2.785-.446 3.664-1.633 1.274-1.542 1.295-5 .569-6.043-.727-1.043-4.939 1.009-4.939 1.009z"/>
        <path fill="#0C1445" d="M201.208 150.864l-.378 3.472s.084-1.385.736-1.106c.652.28-.242 1.695-.242 1.695s0 .527 1.125.868a2.646 2.646 0 0 0 2.555-.28 3.76 3.76 0 0 0 .978-2.913c0-1.467.158-2.728-.536-3.41-.694-.682-4.206-1.55-5.604-1.033-1.399.517-.694 2.79-.421 3.1.273.31 1.787-.393 1.787-.393z"/>
        <path fill="#58BAF4" d="M203.735 156l.265 3-2.643-.54-.357-2.074z"/>
        <path fill="#0C1445" d="M184 154.413l4.322 8.916 10.539-.954v17.22l-1.883 18.013L198.86 215h2.888v-18.185l2.942-12.43 1.081 12.43 7.34 10.598 2.888-1.5-6.569-11.39.503-33.273 3.402-14.863-10.4-12.387-1.764 2.304 8.27 10.02-3.285 11.936-6.162-.803-9.95 2.754-3.788-6.998z"/>
        <path fill="#FFF" d="M184.052 154a3.16 3.16 0 0 1-1.674-1.481 8.506 8.506 0 0 1-.356-3.114s1.235-.766 2.03-.191c.796.574.534 2.096.858 2.287.325.191.44-1.904.89-1.441.45.464 0 1.25 0 2.146v.887l-1.748.907z"/>
        <path fill="#0C1445" d="M245 228l-3 20.89 2.549 1.11.451-1.628zM242 249v2.277l1.5 4.338 1.5.385v-1.597l-.67-1.903.219-2.31z"/>
        <path fill="#FFF" d="M200.458 135.63s-2.202.832-2.434 0c-.231-.831 1.256-.921 1.553-1.258.297-.338 0-3.372 0-3.372a8.46 8.46 0 0 1 1.586 1.562l.837 1.045-1.542 2.023z"/>
        <path fill="#0C1445" d="M252.881 210s-2.337 1.755-4.109 7.008C247 222.262 247 230 247 230l7-14.598-1.119-5.402z"/>
        <path fill="#58BAF4" d="M244 217.716V263l77.979-45.284L322 172z"/>
        <path fill="#FFF" d="M287 199v27l31-18v-27z"/>
        <path fill="#0C1445" d="M252 231.604V252l23-13.593V218zM252.102 211.357l-1.081 6.555a1.41 1.41 0 0 0 .313 1.153L258.09 227l1.179-.809-4.637-8.538 2.107-7.364 5.534-3.234 4.831 6.857 1.081 6.9 1.816-1.003v-6.932a1.873 1.873 0 0 0-.335-1.078l-4.01-5.93a4.33 4.33 0 0 0-5.88-1.197l-5.63 3.58a4.495 4.495 0 0 0-2.043 3.105z"/>
        <path fill="#58BAF4" d="M263 201.685l-1.995 4.102a2.078 2.078 0 0 1-2.088 1.202 2.102 2.102 0 0 1-1.86-1.525v-2.147c-.164-.676.03-1.39.513-1.88l1.41-2.437 4.02 2.685z"/>
        <path fill="#0C1445" d="M257 201.486s.865-3.532 2.11-4.148c1.246-.617 3.663-.505 4.444 1.323a6.454 6.454 0 0 0 1.446 2.354l-2.11 1.122a1.93 1.93 0 0 0-.36-.976c-.327-.392-2.406-1.3-3.008-.404a10.93 10.93 0 0 0-1.055 2.243s.401-1.581 0-2.04c-.401-.46-1.15 1.3-1.15 1.3l-.317-.774z"/>
        <path fill="#FFF" d="M258.187 226.773l-.187 1.424 1.084.803-.355-1.261 1.271-.803-.785-.936zM269.885 220l1.115 1.037-.257 2.66-1.148.303-.569-1.885-.836.45-.19-1.591z"/>
        <path stroke="#FFF" stroke-width=".13" d="M252 241.206V252l12-7.196V234z"/>
        <path fill="#74FCBF" d="M381 261.5l9.66-5.5 9.34 5.343-9.638 5.657z"/>
        <path fill="#60DA9A" d="M381 262v11.311L391 279l-.145-11.245z"/>
        <path fill="#74FCBF" d="M401 262v11.53l-9.857 5.47-.143-11.138z"/>
        <path fill="#FFF" d="M314.087 279L349 307.602 325.117 322 290 293.875z"/>
        <path fill="#0C1445" d="M161 78.746a6.267 6.267 0 0 0 3 4.764c1.65 1.011 3 .394 3-1.274a6.267 6.267 0 0 0-3-4.764c-1.67-.97-3-.394-3 1.274z"/>
        <path stroke="#58BAF4" stroke-linecap="round" stroke-linejoin="round" stroke-width=".5" d="M213 163l127.103-74L375 109.205M262 405.103L300.863 428l91.503-52.934-13.076-7.56L413 348M70 230L0 269.164 64.636 307M523.223 210L563 232.837 496.388 270 472 255.996"/>
        <path fill="#0C1445" d="M302 414l-13 13.395L302 435z"/>
        <path fill="#AA9FFB" d="M302 414l13 13.395L302 435z"/>
        <path fill="#0C1445" d="M66 223l-12 12.12L66 242z"/>
        <path fill="#AA9FFB" d="M65 223l12 12.12L65 242z"/>
        <path stroke="#58BAF4" stroke-dasharray="6" stroke-linecap="round" stroke-linejoin="round" stroke-width=".25" d="M210 103.965L275.833 66 367 118.659 354.494 126M91 244L0 295.51 47.49 323M301 366.942L372.76 409 452 365M494 238l56 32.644L514.475 290"/>
        <path stroke="#FFF" stroke-width=".13" d="M313.398 274L356 308.577 326.861 326 284 291.985z"/>
        <path stroke="#FFF" stroke-width=".13" d="M303.398 296L346 330.577 316.861 348 274 313.996zM146 143.924V176l27.804-16.033L174 128z"/>
    </g>
</svg>
